<svg version="1.1" xmlns="http://www.w3.org/2000/svg" viewBox="-230.39999694824218 -1629.4400817871094 10609.462024101886 2757.120153808594"><desc>Created with Snap</desc><defs></defs><g><rect x="-230.39999694824218" y="-1629.4400817871094" width="10609.462024101886" height="2757.120153808594" fill="#000000" style=""></rect><g transform="matrix(5.7138,0,0,5.7138,7538.3536,-1713.5949)"><path d="M424.3,135.6H323.2l-11.8-39.7c-5.9-19.8-28-31.8-47.9-25.9L96,119.8c-20.3,6.1-31.9,27.5-25.9,47.9l70.1,235.6  c4.8,16.2,20,27.5,36.9,27.5c3.7,0,7.4-0.5,11-1.6l24.5-7.3v2.4c0,10.6,8.6,19.2,19.2,19.2h192.4c10.6,0,19.2-8.6,19.2-19.2V154.9  C443.5,144.2,434.9,135.6,424.3,135.6z M231.8,135.6c-10.6,0-19.2,8.6-19.2,19.2v226.9l-35.5,10.6L107,156.7l167.5-49.8l8.6,28.7  H231.8z" fill="#ffffff" style=""></path><desc>Created with Snap</desc><defs></defs></g><g><g transform="matrix(1.024,0,0,-1.024,0,0)"><path d="M145 0L98 0Q88 0 81 6Q75 13 75 23L75 687Q75 697 81 703Q88 710 98 710L145 710Q156 710 162 703Q168 697 168 687L168 23Q168 13 162 6Q156 0 145 0ZM525 -10Q421 -10 360 53Q299 117 293 227Q292 240 292 260Q292 281 293 294Q297 365 326 418Q355 472 405 501Q456 530 524 530Q600 530 651 498Q703 466 730 407Q757 348 757 269L757 252Q757 241 750 235Q744 229 734 229L388 229Q388 228 388 225Q388 222 388 220Q390 179 406 143Q422 108 452 86Q483 64 524 64Q560 64 584 75Q608 86 623 99Q638 113 643 121Q652 133 657 135Q662 138 673 138L722 138Q731 138 737 132Q744 127 743 117Q742 102 727 80Q712 59 684 38Q657 17 616 3Q576 -10 525 -10ZM388 301L388 298L662 298L662 301Q662 346 645 381Q629 416 598 436Q567 457 524 457Q481 457 450 436Q420 416 404 381Q388 346 388 301ZM1090 -220Q1022 -220 978 -202Q935 -184 910 -159Q886 -133 875 -108Q865 -82 864 -67Q863 -57 870 -50Q878 -43 887 -43L935 -43Q944 -43 950 -47Q956 -51 960 -64Q966 -79 978 -98Q990 -116 1015 -130Q1040 -143 1085 -143Q1132 -143 1164 -130Q1196 -117 1212 -86Q1229 -55 1229 0L1229 68Q1205 37 1166 16Q1127 -4 1068 -4Q1012 -4 972 15Q932 35 906 68Q881 102 868 145Q856 188 854 235Q853 263 854 290Q856 337 868 380Q881 423 906 457Q932 491 972 510Q1012 530 1068 530Q1128 530 1167 508Q1207 486 1232 453L1232 496Q1232 506 1238 513Q1245 520 1255 520L1301 520Q1311 520 1318 513Q1325 506 1325 496L1325 11Q1325 -56 1302 -108Q1280 -160 1228 -190Q1177 -220 1090 -220ZM1088 76Q1138 76 1168 99Q1199 122 1213 157Q1228 192 1229 228Q1230 242 1230 262Q1230 283 1229 297Q1228 333 1213 368Q1199 403 1168 426Q1138 449 1088 449Q1038 449 1008 426Q978 404 965 367Q952 331 950 289Q949 263 950 236Q952 194 965 157Q978 121 1008 98Q1038 76 1088 76ZM1682 -10Q1578 -10 1517 53Q1456 117 1450 227Q1449 240 1449 260Q1449 281 1450 294Q1454 365 1483 418Q1512 472 1562 501Q1613 530 1681 530Q1757 530 1808 498Q1860 466 1887 407Q1914 348 1914 269L1914 252Q1914 241 1907 235Q1901 229 1891 229L1545 229Q1545 228 1545 225Q1545 222 1545 220Q1547 179 1563 143Q1579 108 1609 86Q1640 64 1681 64Q1717 64 1741 75Q1765 86 1780 99Q1795 113 1800 121Q1809 133 1814 135Q1819 138 1830 138L1879 138Q1888 138 1894 132Q1901 127 1900 117Q1899 102 1884 80Q1869 59 1841 38Q1814 17 1773 3Q1733 -10 1682 -10ZM1545 301L1545 298L1819 298L1819 301Q1819 346 1802 381Q1786 416 1755 436Q1724 457 1681 457Q1638 457 1607 436Q1577 416 1561 381Q1545 346 1545 301ZM2107 0L2057 0Q2047 0 2040 6Q2034 13 2034 23L2034 497Q2034 507 2040 513Q2047 520 2057 520L2104 520Q2114 520 2120 513Q2127 507 2127 497L2127 453Q2153 487 2192 508Q2232 530 2294 530Q2359 530 2404 501Q2450 473 2473 422Q2497 372 2497 305L2497 23Q2497 13 2490 6Q2484 0 2474 0L2424 0Q2414 0 2407 6Q2401 13 2401 23L2401 300Q2401 370 2367 409Q2333 449 2267 449Q2205 449 2167 409Q2130 370 2130 300L2130 23Q2130 13 2123 6Q2117 0 2107 0ZM2830 -10Q2775 -10 2735 9Q2695 29 2669 62Q2644 96 2631 139Q2619 182 2617 230Q2616 246 2616 260Q2616 274 2617 290Q2619 337 2631 380Q2644 423 2669 457Q2695 491 2735 510Q2775 530 2830 530Q2889 530 2928 509Q2967 488 2992 457L2992 687Q2992 697 2998 703Q3005 710 3015 710L3063 710Q3073 710 3079 703Q3086 697 3086 687L3086 23Q3086 13 3079 6Q3073 0 3063 0L3018 0Q3007 0 3001 6Q2995 13 2995 23L2995 65Q2970 33 2930 11Q2890 -10 2830 -10ZM2851 71Q2901 71 2931 94Q2961 117 2976 152Q2991 188 2992 225Q2993 241 2993 263Q2993 286 2992 302Q2991 337 2975 371Q2960 405 2929 427Q2899 449 2851 449Q2800 449 2770 426Q2740 404 2727 367Q2714 331 2712 289Q2711 260 2712 231Q2714 189 2727 152Q2740 116 2770 93Q2800 71 2851 71ZM3380 -10Q3330 -10 3289 10Q3248 30 3223 64Q3198 98 3198 141Q3198 210 3254 251Q3310 292 3400 305L3549 326L3549 355Q3549 403 3521 430Q3494 457 3432 457Q3399 457 3376 447Q3354 437 3340 423Q3326 409 3318 395Q3314 386 3309 382Q3305 378 3298 378L3255 378Q3246 378 3239 384Q3233 391 3233 400Q3233 415 3244 437Q3256 459 3280 480Q3304 501 3341 515Q3379 530 3433 530Q3493 530 3534 514Q3575 499 3598 473Q3622 447 3632 414Q3643 381 3643 347L3643 23Q3643 13 3636 6Q3630 0 3620 0L3574 0Q3563 0 3557 6Q3551 13 3551 23L3551 66Q3538 48 3516 30Q3494 13 3461 1Q3428 -10 3380 -10ZM3401 65Q3442 65 3476 82Q3510 100 3529 137Q3549 174 3549 230L3549 258L3433 241Q3362 231 3326 207Q3290 184 3290 148Q3290 120 3306 101Q3323 83 3348 74Q3374 65 3401 65ZM3859 0L3810 0Q3800 0 3793 6Q3787 13 3787 23L3787 496Q3787 506 3793 513Q3800 520 3810 520L3856 520Q3866 520 3873 513Q3880 506 3880 496L3880 452Q3900 486 3935 503Q3970 520 4020 520L4059 520Q4069 520 4075 513Q4082 507 4082 497L4082 456Q4082 446 4075 440Q4069 434 4059 434L3999 434Q3945 434 3914 402Q3883 371 3883 317L3883 23Q3883 13 3876 6Q3869 0 3859 0ZM4305 -190L4258 -190Q4250 -190 4244 -184Q4238 -178 4238 -170Q4238 -166 4239 -162Q4240 -158 4243 -152L4320 31L4129 482Q4124 494 4124 499Q4124 508 4130 514Q4136 520 4145 520L4194 520Q4205 520 4210 515Q4215 510 4218 503L4370 139L4526 503Q4529 510 4534 515Q4540 520 4551 520L4598 520Q4607 520 4613 514Q4619 508 4619 500Q4619 495 4614 482L4330 -173Q4327 -180 4321 -185Q4316 -190 4305 -190ZM4807 0L4735 0Q4725 0 4718 6Q4712 13 4712 23L4712 95Q4712 105 4718 111Q4725 118 4735 118L4807 118Q4817 118 4824 111Q4831 105 4831 95L4831 23Q4831 13 4824 6Q4817 0 4807 0ZM5181 -10Q5110 -10 5058 17Q5007 45 4979 96Q4951 148 4949 220Q4948 235 4948 260Q4948 285 4949 300Q4951 372 4979 423Q5007 475 5058 502Q5110 530 5181 530Q5239 530 5280 514Q5322 498 5349 473Q5376 448 5389 419Q5403 390 5404 364Q5405 354 5398 348Q5391 342 5381 342L5333 342Q5323 342 5318 346Q5313 351 5308 362Q5290 411 5259 431Q5228 451 5182 451Q5122 451 5084 414Q5047 377 5044 295Q5043 259 5044 225Q5047 142 5084 105Q5122 69 5182 69Q5228 69 5259 89Q5290 109 5308 158Q5313 169 5318 174Q5323 179 5333 179L5381 179Q5391 179 5398 172Q5405 166 5404 156Q5403 135 5395 113Q5387 91 5369 68Q5352 46 5326 28Q5300 11 5264 0Q5228 -10 5181 -10ZM5668 -10Q5618 -10 5577 10Q5536 30 5511 64Q5486 98 5486 141Q5486 210 5542 251Q5598 292 5688 305L5837 326L5837 355Q5837 403 5809 430Q5782 457 5720 457Q5687 457 5664 447Q5642 437 5628 423Q5614 409 5606 395Q5602 386 5597 382Q5593 378 5586 378L5543 378Q5534 378 5527 384Q5521 391 5521 400Q5521 415 5532 437Q5544 459 5568 480Q5592 501 5629 515Q5667 530 5721 530Q5781 530 5822 514Q5863 499 5886 473Q5910 447 5920 414Q5931 381 5931 347L5931 23Q5931 13 5924 6Q5918 0 5908 0L5862 0Q5851 0 5845 6Q5839 13 5839 23L5839 66Q5826 48 5804 30Q5782 13 5749 1Q5716 -10 5668 -10ZM5689 65Q5730 65 5764 82Q5798 100 5817 137Q5837 174 5837 230L5837 258L5721 241Q5650 231 5614 207Q5578 184 5578 148Q5578 120 5594 101Q5611 83 5636 74Q5662 65 5689 65ZM6147 0L6098 0Q6088 0 6081 6Q6075 13 6075 23L6075 496Q6075 506 6081 513Q6088 520 6098 520L6144 520Q6154 520 6161 513Q6168 506 6168 496L6168 452Q6188 486 6223 503Q6258 520 6308 520L6347 520Q6357 520 6363 513Q6370 507 6370 497L6370 456Q6370 446 6363 440Q6357 434 6347 434L6287 434Q6233 434 6202 402Q6171 371 6171 317L6171 23Q6171 13 6164 6Q6157 0 6147 0ZM6645 -10Q6590 -10 6550 9Q6510 29 6484 62Q6459 96 6446 139Q6434 182 6432 230Q6431 246 6431 260Q6431 274 6432 290Q6434 337 6446 380Q6459 423 6484 457Q6510 491 6550 510Q6590 530 6645 530Q6704 530 6743 509Q6782 488 6807 457L6807 687Q6807 697 6813 703Q6820 710 6830 710L6878 710Q6888 710 6894 703Q6901 697 6901 687L6901 23Q6901 13 6894 6Q6888 0 6878 0L6833 0Q6822 0 6816 6Q6810 13 6810 23L6810 65Q6785 33 6745 11Q6705 -10 6645 -10ZM6666 71Q6716 71 6746 94Q6776 117 6791 152Q6806 188 6807 225Q6808 241 6808 263Q6808 286 6807 302Q6806 337 6790 371Q6775 405 6744 427Q6714 449 6666 449Q6615 449 6585 426Q6555 404 6542 367Q6529 331 6527 289Q6526 260 6527 231Q6529 189 6542 152Q6555 116 6585 93Q6615 71 6666 71ZM7230 -10Q7174 -10 7134 4Q7094 18 7069 38Q7044 58 7031 78Q7019 98 7018 110Q7017 121 7025 127Q7033 133 7041 133L7086 133Q7091 133 7094 131Q7098 130 7104 123Q7117 109 7133 95Q7149 81 7172 72Q7196 63 7231 63Q7282 63 7315 82Q7348 102 7348 140Q7348 165 7334 180Q7321 195 7286 207Q7252 219 7192 232Q7132 246 7097 266Q7062 287 7047 315Q7032 344 7032 380Q7032 417 7054 451Q7076 486 7118 508Q7161 530 7225 530Q7277 530 7314 517Q7351 504 7375 484Q7399 465 7411 446Q7423 427 7424 414Q7425 404 7418 397Q7411 391 7402 391L7360 391Q7353 391 7348 394Q7344 397 7340 401Q7330 414 7316 427Q7303 440 7281 448Q7260 457 7225 457Q7175 457 7150 436Q7125 415 7125 383Q7125 364 7136 349Q7147 334 7178 322Q7209 310 7270 296Q7336 283 7374 261Q7412 239 7428 210Q7444 181 7444 143Q7444 101 7420 66Q7396 31 7348 10Q7300 -10 7230 -10Z" fill="#ffffff" style=""></path></g></g></g></svg>