<?xml version="1.0"?>
<svg version="1.1" xmlns="http://www.w3.org/2000/svg" width="350" height="85" style=""><path fill="#cee0ed" d="M18.744,72.66q1.716,0,4.42-1.82t5.252-4.94q0.624-0.832,0.988-0.832t0.364,0.312t-2.132,2.704q-5.2,5.72-8.684,5.72q-1.716,0-2.912-0.806t-1.196-2.496t0.884-3.926q1.508-3.536,4.836-8.892q6.084-9.88,8.632-9.88q0.52,0,1.066,0.39t0.598,0.858q-1.196,1.612-4.602,6.188t-4.706,6.578t-1.95,2.99t-0.962,1.534t-0.728,1.43q-0.884,1.768-0.884,3.328t1.716,1.56z M32.58484,74.376q-0.572,0-1.04-0.156q-3.328-0.936-3.328-3.744q0-3.64,4.576-8.424t8.216-4.784q1.196,0,1.95,0.65t0.754,1.586q0,2.912-4.394,5.564t-7.15,2.652q-0.416,0-0.728-0.104q-0.78,1.404-0.78,2.964q0,2.704,2.574,2.704t6.682-3.484q3.172-2.548,5.408-5.408q0.468-0.624,0.806-0.624t0.338,0.312t-0.416,0.884q-2.808,3.692-6.76,6.552t-6.708,2.86z M42.41284,59.4q0-0.624-1.326-0.624t-3.77,2.028q-3.276,2.704-5.096,5.668q0.312,0.104,0.676,0.104q1.976,0,5.278-2.106t4.134-4.602q0.104-0.26,0.104-0.468z M62.96168,57.84l0.728-0.156q0.676,0,1.066,0.416t0.39,0.65t-0.052,0.52t-1.508,2.626q-1.82,3.172-3.016,5.356q-4.212,7.852-6.448,10.764q-4.784,6.344-9.1,6.344q-1.508,0-2.626-1.274t-1.17-2.834q0.156-0.624,0.468-0.624q0.156,0,0.26,0.364q0.26,1.352,0.988,2.08t1.456,0.728q2.964,0,6.344-3.9q2.236-2.6,4.94-7.592l2.6-5.148l-3.9,3.952q-3.744,3.588-5.122,3.588t-2.626-0.936q-1.404-1.04-1.404-2.756q0-3.796,5.33-9.048t9.698-5.252q1.768,0,2.288,1.144q0.156,0.416,0.26,0.702t0.156,0.286z M47.41368,70.632q0,1.872,1.3,1.872q3.016,0,8.216-6.604l5.512-7.592q-0.312-0.728-1.3-0.728q-3.224,0-8.476,4.966t-5.252,8.086z M69.78252,74.376q-0.572,0-1.04-0.156q-3.328-0.936-3.328-3.744q0-3.64,4.576-8.424t8.216-4.784q1.196,0,1.95,0.65t0.754,1.586q0,2.912-4.394,5.564t-7.15,2.652q-0.416,0-0.728-0.104q-0.78,1.404-0.78,2.964q0,2.704,2.574,2.704t6.682-3.484q3.172-2.548,5.408-5.408q0.468-0.624,0.806-0.624t0.338,0.312t-0.416,0.884q-2.808,3.692-6.76,6.552t-6.708,2.86z M79.61052,59.4q0-0.624-1.326-0.624t-3.77,2.028q-3.276,2.704-5.096,5.668q0.312,0.104,0.676,0.104q1.976,0,5.278-2.106t4.134-4.602q0.104-0.26,0.104-0.468z M91.16336,57.268q1.404,0,1.404,1.092q0,0.312-0.156,0.624q-4.68,6.5-5.616,9.828q12.116-12.116,14.716-12.116q0.26-0.052,0.468-0.052q1.456,0,1.456,1.3q0,0.26-0.104,0.52t-2.08,2.808q-2.288,2.704-3.874,5.2t-1.586,4.16t0.728,1.664q2.288,0,7.956-6.292q0.104-0.104,0.364-0.468q0.78-0.936,0.936-0.936t0.156,0.52t-0.728,1.352q-6.448,7.332-9.152,7.332q-2.548,0-2.548-2.808t2.08-6.448l3.328-5.408q-3.536,2.6-6.292,5.694t-5.018,6.006t-2.626,2.912q-0.78,0-1.222-0.65t-0.442-1.612t0.676-2.574t1.716-3.9l-3.12,3.276q-1.144,1.144-1.43,1.144t-0.286-0.338t0.416-0.754q1.924-1.924,3.328-3.692q1.352-1.768,5.564-6.76q0.468-0.624,0.988-0.624z M123.1002,57.944q5.824-9.464,8.112-9.464q0.364,0,1.014,0.234t0.65,0.702q0,0.26-0.26,0.676q-4.16,5.096-6.188,7.644q-6.136,7.748-6.76,11.128q-0.156,0.728-0.156,1.456q0,2.34,1.924,2.34q3.848,0,10.036-7.124q0.52-0.52,0.884-0.598t0.364,0.182t-0.312,0.624q-6.032,7.228-10.712,8.06q-0.26,0.052-0.728,0.052q-1.612,0-2.418-1.118t-0.806-2.418q0-1.456,0.572-3.224l-4.212,4.212q-2.86,2.652-4.498,2.652t-2.73-0.884q-1.3-0.988-1.3-2.756q0-3.796,5.304-9.074t9.724-5.278q1.456,0,2.028,0.78q0.208,0.26,0.468,1.196z M107.7602,70.944q0,1.872,1.3,1.872q2.236,0,7.436-6.136q0.936-1.092,6.24-8.164q-0.364-0.624-1.248-0.624q-3.224,0-8.476,4.914t-5.252,8.138z M149.88904,58.152l0.728-0.156q0.572,0,1.092,0.468t0.52,0.728t-3.224,5.018t-3.224,6.63q0,0.156,0.052,0.312q0.26,1.196,1.144,1.196q2.704,0,9.88-8.944q0.156-0.208,0.364-0.208t0.208,0.39t-0.468,1.014q-6.656,8.892-10.14,8.892q-0.468,0-0.884-0.156q-2.288-0.884-2.288-3.432q0-0.884,0.208-1.768l-3.224,3.12q-3.068,2.704-4.446,2.704t-2.626-0.884q-1.404-1.04-1.404-2.756q0-3.796,5.304-9.074t9.724-5.278q1.716,0,2.288,1.196q0.156,0.416,0.26,0.702t0.156,0.286z M134.34104,70.944q0,1.872,1.3,1.872q3.016,0,8.216-6.604l5.512-7.592q-0.416-0.728-1.352-0.728q-3.172,0-8.424,4.914t-5.252,8.138z M166.95388,73.96q-3.9,0-3.9-4.316q0-2.184,1.144-4.784t2.496-4.368q-0.26,0.052-0.676,0.052q-1.248,0-2.08-1.768l-3.848,4.992q-3.224,4.004-3.744,4.004q-0.26,0-0.26-0.208q0-0.52,0.884-1.508q4.524-5.252,6.396-8.892q1.196-4.524,3.016-4.524q1.196,0,1.196,1.04t-1.3,2.652l-1.248,1.664q0,1.092,1.612,1.092q0.936,0,2.08-0.676l1.352-0.832q0.104-0.052,0.52-0.052t0.884,0.52t0.312,0.936l-3.588,4.524q-3.328,4.264-3.328,6.734t2.288,2.47q2.392,0,5.876-2.548q2.08-1.508,3.796-3.38q1.612-1.872,1.768-1.872q0.364,0,0.364,0.39t-0.468,0.91l-1.664,1.872q-1.404,1.456-3.12,2.808q-4.108,3.068-6.76,3.068z M176.21872,79.732q2.496,3.12,4.316,3.12q2.964,0,6.396-4.732q2.496-3.484,4.888-8.788l1.976-4.784l-7.644,5.98q-3.536,2.756-5.668,2.756q-1.144,0-1.82-0.78t-0.676-1.768q0-2.236,3.848-7.358t5.616-5.122t1.768,1.196q0,0.468-4.602,5.382t-4.602,6.63q0,0.676,0.884,0.676q1.664,0,6.682-3.9t7.566-6.448q0.572-0.676,1.612-2.028q0.988-1.144,2.184-1.144t1.196,1.144q0,0.208-2.34,3.692t-2.444,3.692q-1.612,3.12-4.94,9.1q-5.044,8.112-10.088,8.112q-1.664,0-2.912-1.43t-1.196-3.198z M208.70156,70.944q0.702,0.52,0.702,1.17t-0.65,1.144t-1.43,0.494t-1.43-0.546t-0.65-1.274q0-1.508,1.976-1.508q0.78,0,1.482,0.52z M218.6684,74.376q-0.572,0-1.04-0.156q-3.328-0.936-3.328-3.744q0-3.64,4.576-8.424t8.216-4.784q1.196,0,1.95,0.65t0.754,1.768t-0.676,2.34t-2.028,1.222t-1.352-0.832q0-0.572,0.702-1.742t0.702-1.248t-0.156-0.078q-1.456,0.156-3.978,2.08t-3.458,3.224l-2.028,2.964q-0.52,0.832-0.754,1.976t-0.234,1.716t0.65,1.3t1.846,0.728q2.6,0,6.448-3.042t5.928-5.798q0.26-0.312,0.624-0.312t0.364,0.208t-0.26,0.52q-2.86,3.796-6.838,6.63t-6.63,2.834z M248.99324,58.152l0.728-0.156q0.572,0,1.092,0.468t0.52,0.728t-3.224,5.018t-3.224,6.63q0,0.156,0.052,0.312q0.26,1.196,1.144,1.196q2.704,0,9.88-8.944q0.156-0.208,0.364-0.208t0.208,0.39t-0.468,1.014q-6.656,8.892-10.14,8.892q-0.468,0-0.884-0.156q-2.288-0.884-2.288-3.432q0-0.884,0.208-1.768l-3.224,3.12q-3.068,2.704-4.446,2.704t-2.626-0.884q-1.404-1.04-1.404-2.756q0-3.796,5.304-9.074t9.724-5.278q1.716,0,2.288,1.196q0.156,0.416,0.26,0.702t0.156,0.286z M233.44524,70.944q0,1.872,1.3,1.872q3.016,0,8.216-6.604l5.512-7.592q-0.416-0.728-1.352-0.728q-3.172,0-8.424,4.914t-5.252,8.138z M266.05808,73.96q-3.9,0-3.9-4.316q0-2.184,1.144-4.784t2.496-4.368q-0.26,0.052-0.676,0.052q-1.248,0-2.08-1.768l-3.848,4.992q-3.224,4.004-3.744,4.004q-0.26,0-0.26-0.208q0-0.52,0.884-1.508q4.524-5.252,6.396-8.892q1.196-4.524,3.016-4.524q1.196,0,1.196,1.04t-1.3,2.652l-1.248,1.664q0,1.092,1.612,1.092q0.936,0,2.08-0.676l1.352-0.832q0.104-0.052,0.52-0.052t0.884,0.52t0.312,0.936l-3.588,4.524q-3.328,4.264-3.328,6.734t2.288,2.47q2.392,0,5.876-2.548q2.08-1.508,3.796-3.38q1.612-1.872,1.768-1.872q0.364,0,0.364,0.39t-0.468,0.91l-1.664,1.872q-1.404,1.456-3.12,2.808q-4.108,3.068-6.76,3.068z M295.29092,57.944q5.824-9.464,8.112-9.464q0.364,0,1.014,0.234t0.65,0.702q0,0.26-0.26,0.676q-4.16,5.096-6.188,7.644q-6.136,7.748-6.76,11.128q-0.156,0.728-0.156,1.456q0,2.34,1.924,2.34q3.848,0,10.036-7.124q0.52-0.52,0.884-0.598t0.364,0.182t-0.312,0.624q-6.032,7.228-10.712,8.06q-0.26,0.052-0.728,0.052q-1.612,0-2.418-1.118t-0.806-2.418q0-1.456,0.572-3.224l-4.212,4.212q-2.86,2.652-4.498,2.652t-2.73-0.884q-1.3-0.988-1.3-2.756q0-3.796,5.304-9.074t9.724-5.278q1.456,0,2.028,0.78q0.208,0.26,0.468,1.196z M279.95092,70.944q0,1.872,1.3,1.872q2.236,0,7.436-6.136q0.936-1.092,6.24-8.164q-0.364-0.624-1.248-0.624q-3.224,0-8.476,4.914t-5.252,8.138z M314.38376,72.92q-1.508,0.884-3.718,0.884t-3.38-1.456t-2.002-4.628q-0.936,0.936-1.3,0.936q-0.26,0-0.26-0.364t0.26-0.624q1.716-2.132,5.824-6.136l6.552-6.136q2.808-2.652,3.328-2.652q1.664,0,1.664,1.248q0,0.624-0.494,1.222t-0.728,0.936t-0.494,0.65q-0.936,1.612-1.898,6.656t-1.482,7.02q4.316-0.052,8.892-5.616q0.52-0.52,0.78-0.52t0.26,0.338t-0.468,0.91q-3.016,3.536-5.616,4.94q-1.56,0.78-4.056,1.3z M307.36376,67.148q0,1.768,1.17,2.886t2.626,1.118t2.236-0.572q1.04-0.572,2.054-4.784t1.222-7.436l0.208-1.768q-2.86,2.132-6.11,5.512t-3.354,4.472q-0.052,0.312-0.052,0.572z"/><path fill="#" d=""/></svg>
